<?xml version="1.0" standalone="no"?>
<!DOCTYPE svg PUBLIC "-//W3C//DTD SVG 20010904//EN"
 "http://www.w3.org/TR/2001/REC-SVG-20010904/DTD/svg10.dtd">
<svg version="1.0" xmlns="http://www.w3.org/2000/svg"
 width="488.000000pt" height="488.000000pt" viewBox="0 0 488.000000 488.000000"
 preserveAspectRatio="xMidYMid meet">
<metadata>
Created by potrace 1.11, written by Peter Selinger 2001-2013
</metadata>
<g transform="translate(0.000000,488.000000) scale(0.100000,-0.100000)"
fill="#000000" stroke="none">
<path d="M2280 4870 c-169 -18 -266 -31 -340 -46 -103 -21 -344 -94 -351 -106
-4 -6 -14 -8 -24 -5 -9 4 -13 3 -10 -2 7 -12 -31 -24 -46 -15 -8 4 -9 3 -5 -4
4 -7 1 -13 -6 -14 -7 0 -17 -2 -23 -3 -5 -2 -17 -3 -26 -4 -8 0 -24 -9 -35
-19 -11 -10 -53 -36 -94 -57 -41 -22 -102 -55 -135 -75 -33 -19 -67 -36 -75
-38 -28 -7 -173 -117 -274 -208 -417 -376 -655 -778 -783 -1319 l-28 -120 0
-410 0 -410 42 -156 c54 -201 99 -320 183 -494 81 -165 196 -344 302 -470 101
-120 324 -337 421 -409 105 -78 247 -167 258 -161 4 3 11 -1 16 -9 22 -39 357
-177 562 -232 343 -91 761 -105 1090 -35 258 55 551 152 551 183 0 5 6 8 13 5
33 -13 360 187 458 280 33 32 65 57 70 55 5 -1 61 49 125 110 224 217 397 460
529 741 50 108 135 355 159 467 9 41 21 91 26 111 6 20 17 99 26 175 26 221
12 535 -31 722 -40 168 -50 205 -85 312 -89 270 -231 529 -418 764 -72 90
-277 295 -367 367 -83 65 -195 143 -212 146 -6 1 -24 14 -38 27 -43 40 -339
182 -460 222 -331 106 -716 160 -965 134z"/>
</g>
</svg>
